# xmcd
#
# Track frame offsets: 
#        150
#        87298
#        136530
#
# Disc length: 2407 seconds
#
# Revision: 2
# Processed by: cddbd v1.5.2PL0 Copyright (c) Steve Scherf et al.
# Submitted via: ExactAudioCopy v0.99pb5
#
DISCID=18096503
DTITLE=Neil Ardley, Ian Carr, Mike Gibbs, Stan Tracey - Will Power - A
DTITLE=Shakespeare Birthday Celebration In Music
DYEAR=1974
DGENRE=Contemporary Jazz
TTITLE0=Sonnet
TTITLE1=Shall I Compare Thee
TTITLE2=Charade For The Bard
EXTD=YEAR: 1975
EXTT0=
EXTT1=
EXTT2=
PLAYORDER=
